<svg width="72" height="49" viewBox="0 0 72 49" fill="none" xmlns="http://www.w3.org/2000/svg">
<path fill-rule="evenodd" clip-rule="evenodd" d="M5.56801 12.2426H8.44749V16.5805H1.24951V0H5.56801V12.2426Z" fill="white"/>
<path fill-rule="evenodd" clip-rule="evenodd" d="M64.1465 4.54736H61.2212V0.209473H71.3903V4.54736H68.4636V16.7907H64.1465V4.54736Z" fill="white"/>
<path d="M38.0529 0.209473H33.7344V16.7906H38.0529V0.209473Z" fill="white"/>
<path fill-rule="evenodd" clip-rule="evenodd" d="M9.4052 35.2645C11.0611 35.2645 11.7305 36.2816 11.9482 37.0721L12.2288 38.0919L18.1181 36.0737L17.874 35.1703C17.1144 32.3544 14.7045 29.0796 9.35866 29.0796C4.38723 29.0796 0 32.8097 0 38.7163C0 44.5452 4.30347 48.2825 9.4052 48.2825C14.9093 48.2825 17.2733 44.6545 18.0558 41.9026L18.3279 40.9467L12.3699 39.2118L12.0756 40.1361C11.8029 40.9928 11.0984 42.0285 9.4281 42.0285C7.93109 42.0285 6.48062 40.764 6.48062 38.6932C6.48062 36.4017 7.99123 35.2645 9.4052 35.2645ZM9.4052 34.2669C11.6998 34.2669 12.604 35.7112 12.9054 36.8059L16.9153 35.4314C16.2431 32.9399 14.0874 30.0772 9.35866 30.0772C4.90843 30.0772 0.992998 33.4289 0.992998 38.7163C0.992998 43.9338 4.83898 47.2849 9.4052 47.2849C14.2964 47.2849 16.4056 44.0733 17.1015 41.6286L13.0214 40.4404C12.6505 41.6048 11.6998 43.0261 9.4281 43.0261C7.45786 43.0261 5.48762 41.4185 5.48762 38.6932C5.48762 35.6874 7.55022 34.2669 9.4052 34.2669Z" fill="white"/>
<path fill-rule="evenodd" clip-rule="evenodd" d="M37.2618 29.0796H37.2582H37.2611H29.5698V47.5841H37.7486C41.4536 47.5841 43.8856 45.1544 43.8856 41.9069C43.8856 40.1361 43.1203 38.7616 42.0449 37.9093C42.8668 37.0663 43.3751 35.868 43.3751 34.5007C43.3751 31.4639 41.1794 29.0796 37.2618 29.0796ZM37.2618 30.0772H30.5628V46.5865H37.7486C40.8307 46.5865 42.8926 44.6085 42.8926 41.9069C42.8926 39.8096 41.5717 38.3897 40.0661 38.0179C41.4328 37.5525 42.3821 36.1787 42.3821 34.5007C42.3821 31.9854 40.5057 30.0772 37.2618 30.0772ZM36.8372 39.7649C37.9491 39.8052 38.5369 40.4698 38.5369 41.4408C38.5369 42.4435 37.9111 43.0959 36.7277 43.0959H34.7324V39.7628H36.7277L36.8372 39.7649ZM36.7277 40.7604L36.8315 40.7626C37.0685 40.7727 37.2596 40.8216 37.3878 40.9453C37.5095 41.0625 37.5439 41.2402 37.5439 41.4408C37.5439 41.6358 37.5131 41.807 37.395 41.9184C37.2468 42.0587 37.0155 42.0983 36.7277 42.0983H35.7254V40.7604H36.7277ZM36.4728 36.5981H34.7324V33.498H36.4263C37.6097 33.498 38.166 34.1274 38.166 35.0365C38.166 35.9924 37.5167 36.5981 36.4728 36.5981ZM36.4728 35.6004H36.4693H36.4728H35.7254V34.4956H36.4263C36.7055 34.4956 36.9246 34.5251 37.0599 34.6531C37.1566 34.7445 37.173 34.884 37.173 35.0365C37.173 35.2027 37.1401 35.348 37.0384 35.4422C36.9067 35.5638 36.7069 35.6004 36.4728 35.6004Z" fill="white"/>
<path fill-rule="evenodd" clip-rule="evenodd" d="M55.8071 29.0796V47.5841H62.7323C65.4264 47.5841 67.7303 46.6915 69.3676 45.1048C71.0099 43.5138 72.0001 41.2143 72.0001 38.3437C72.0001 35.4746 71.0049 33.1693 69.3633 31.5726C67.7245 29.978 65.4257 29.0796 62.7552 29.0796H55.8071ZM56.8001 46.5865H62.7323C67.5556 46.5865 71.0071 43.4678 71.0071 38.3437C71.0071 33.219 67.5319 30.0772 62.7552 30.0772H56.8001V46.5865ZM62.7087 42.3277H61.1315V34.2669H62.7087C64.7735 34.2669 66.559 35.5249 66.559 38.32C66.559 41.1157 64.7735 42.3277 62.7087 42.3277ZM62.7087 41.3301H62.1252V35.2645H62.7087C63.4783 35.2645 64.2036 35.4774 64.7291 35.973C65.2639 36.4765 65.566 37.2591 65.566 38.32C65.566 39.3758 65.2667 40.1462 64.7355 40.6389C64.2086 41.1265 63.4805 41.3301 62.7087 41.3301Z" fill="white"/>
</svg>
